<svg id="Layer_1" data-name="Layer 1" xmlns="http://www.w3.org/2000/svg" viewBox="0 0 2488 743"><defs><style>.cls-1{fill:#567feb;}.cls-2{fill:#1f33bc;}.cls-3{fill:#b5c6f5;}</style></defs><title>LikesBucks-Icono</title><path class="cls-1" d="M72.07,191.12c0-13.1,8.74-19.41,22.32-19.41,13.11,0,21.84,6.31,21.84,19.41v345c0,13.1-8.73,19.4-21.84,19.4-13.58,0-22.32-6.3-22.32-19.4Z"/><path class="cls-2" d="M240.44,203.74c0,18.92-14.56,33-32.51,33-18.44,0-33-14.08-33-33,0-18.44,14.56-32.51,33-32.51A32.21,32.21,0,0,1,240.44,203.74Z"/><path class="cls-1" d="M185.6,299.81c0-12.61,8.25-18.92,21.84-18.92,13.1,0,22.32,6.31,22.32,18.92V536.13c0,13.1-9.22,19.4-22.32,19.4-13.59,0-21.84-6.3-21.84-19.4Z"/><path class="cls-1" d="M343.3,536.13c0,13.1-8.74,19.4-21.84,19.4-13.58,0-21.83-6.3-21.83-19.4V190.64c0-12.62,8.73-18.93,22.32-18.93,12.61,0,21.35,5.34,21.35,18V405.11L461.7,287.2a20.66,20.66,0,0,1,14.55-6.31,20.07,20.07,0,0,1,16,7.28c4.36,4.85,7.28,10.68,7.28,16,0,4.85-1.94,9.22-6.31,13.59l-82,76.67L507.79,523a17.42,17.42,0,0,1,3.4,10.67c0,7.28-4.85,14.55-11.16,18.44a24,24,0,0,1-13.1,3.39c-6.31,0-12.62-2.42-16.5-7.76L380.18,421.61,343.3,457Z"/><path class="cls-1" d="M589.78,426.46c1,59.68,30.58,97.05,83,97.05,34.94,0,54.35-17.47,66-43.19,4.37-8.73,10.68-12.13,17.47-12.13a37.45,37.45,0,0,1,10.19,1.95c8.25,2.42,15,8.24,15,17a15,15,0,0,1-2.42,8.73c-15.53,32-43.67,64-106.76,64-79.57,0-125.67-56.28-125.67-140.23S590.27,277,669.37,277c70.84,0,110.63,55.32,115.48,118.88v3.88c0,17.47-9.22,26.69-24.26,26.69ZM733.42,391c5.33,0,7.27-1.94,7.27-6.31V382.3c-5.82-34.45-26.69-69.87-71.32-69.87-46.59,0-71.82,31.06-78.13,78.61Z"/><path class="cls-1" d="M914.39,429.37C854.7,417.73,830,396.86,830,350.76c0-44.15,37.85-74.24,100.44-74.24,53.86,0,88.31,22.81,100.44,58.23a24.12,24.12,0,0,1,1,5.83c0,9.22-8.25,15.52-17,17.95a42,42,0,0,1-7.76,1c-8.74,0-17.47-3.88-19.9-13.1-6.3-21.84-27.65-33-55.31-33-39.31,0-57.75,16-57.75,36.4,0,22.32,9.22,32,50,40.76l30.08,6.3c63.08,13.11,88.31,31.54,88.31,82.49,0,46.59-39.79,81-107.72,81-62.11,0-98.51-24.75-111.12-67.93a33.06,33.06,0,0,1-1-6.32c0-9.7,8.25-16.49,17.47-18.43a37.66,37.66,0,0,1,6.79-1c9.22,0,17.95,3.88,20.87,13.1,8.73,28.14,28.62,42.21,67,42.21,38.82,0,64.05-17,64.05-41.73,0-23.77-12.61-36.87-56.78-45.61Z"/><path class="cls-3" d="M1152.11,537.58c0,10.67-7.28,17.95-21.35,17.95-13.59,0-21.84-6.3-21.84-19.4v-345c0-13.1,8.25-19.41,21.84-19.41,12.61,0,21.35,6.31,21.35,19.41V296.91a304.67,304.67,0,0,1-2.43,35.42c18-34.46,46.58-55.32,91.22-55.32,72.79,0,114.52,53.38,114.52,139.75,0,85.4-44.16,143.14-116,143.14-44.64,0-73.76-21.83-89.28-55.8a207.72,207.72,0,0,1,1.94,23.29Zm-1-119.85c0,60.17,31.55,103.84,82.5,103.84,49,0,77.15-41.73,77.15-104.33,0-63.08-27.17-102.38-75.7-102.38C1181.71,314.86,1151.13,358,1151.13,417.73Z"/><path class="cls-1" d="M1410.23,300.3c0-13.1,9.22-19.41,22.33-19.41s22.32,6.31,22.32,19.41V455.58c0,41.72,17,65,52.89,65,25.72,0,46.58-12.13,63.08-34.94,11.64-16.5,16.5-31.54,16.5-50.47V300.3c0-13.1,9.22-19.41,22.32-19.41,12.62,0,21.83,6.31,21.83,19.41V536.13c0,13.1-8.73,19.4-21.35,19.4-13.1,0-22.32-5.82-22.32-17.95V524c0-5.33,1.46-15,2.91-22.8-15,34-43.18,58.71-91.71,58.71-57.25,0-88.8-35.91-88.8-95.1Z"/><path class="cls-1" d="M1811,276.52c64,0,90.25,35.43,102.38,66a21.47,21.47,0,0,1,1.46,7.28c0,9.22-7.28,15-14.56,17.95a40.44,40.44,0,0,1-10.67,1.45c-7.28,0-13.59-2.91-17-11.16-9.22-24.74-23.77-43.67-60.65-43.67-50.47,0-78.12,42.71-78.12,104.33,0,63.56,27.17,103.84,78.6,103.84,37.85,0,52.9-18.44,62.11-44.64,3.4-9.22,10.2-13.1,18-13.1a25.27,25.27,0,0,1,10.19,1.94c8.73,1.94,15.53,7.76,15.53,16.5a20.55,20.55,0,0,1-1.94,8.73c-13.11,33.48-38.82,68.42-104.81,68.42-78.62,0-122.77-57.75-122.77-141.2C1688.74,336.21,1731.44,276.52,1811,276.52Z"/><path class="cls-1" d="M2014.32,536.13c0,13.1-8.74,19.4-21.84,19.4-13.59,0-21.84-6.3-21.84-19.4V190.64c0-12.62,8.74-18.93,22.32-18.93,12.62,0,21.36,5.34,21.36,18V405.11L2132.71,287.2a20.7,20.7,0,0,1,14.56-6.31,20,20,0,0,1,16,7.28c4.37,4.85,7.28,10.68,7.28,16,0,4.85-1.94,9.22-6.31,13.59l-82,76.67L2178.81,523a17.49,17.49,0,0,1,3.4,10.67c0,7.28-4.86,14.55-11.16,18.44a24,24,0,0,1-13.1,3.39c-6.31,0-12.62-2.42-16.5-7.76l-90.26-126.16L2014.32,457Z"/><path class="cls-1" d="M2306.9,429.37c-59.68-11.64-84.43-32.51-84.43-78.61,0-44.15,37.85-74.24,100.44-74.24,53.86,0,88.31,22.81,100.44,58.23a24.12,24.12,0,0,1,1,5.83c0,9.22-8.25,15.52-17,17.95a42,42,0,0,1-7.76,1c-8.74,0-17.47-3.88-19.9-13.1-6.3-21.84-27.65-33-55.31-33-39.31,0-57.75,16-57.75,36.4,0,22.32,9.22,32,50,40.76l30.08,6.3C2409.77,410,2435,428.4,2435,479.35c0,46.59-39.79,81-107.72,81-62.11,0-98.51-24.75-111.12-67.93a33.06,33.06,0,0,1-1-6.32c0-9.7,8.25-16.49,17.47-18.43a37.53,37.53,0,0,1,6.79-1c9.22,0,18,3.88,20.87,13.1,8.73,28.14,28.62,42.21,67,42.21,38.82,0,64-17,64-41.73,0-23.77-12.61-36.87-56.78-45.61Z"/></svg>